Coordinates
version=1
nRows=13
nColumns=36
inDegrees=yes

Units are S.I. units (second, meters, Newtons, ...)
If the header above contains a line with 'inDegrees', this indicates whether rotational values are in degrees (yes) or radians (no).

endheader
time	pelvis_tilt	pelvis_list	pelvis_rotation	pelvis_tx	pelvis_ty	pelvis_tz	hip_flexion_r	hip_adduction_r	hip_rotation_r	knee_angle_r	knee_angle_r_beta	ankle_angle_r	subtalar_angle_r	mtp_angle_r	hip_flexion_l	hip_adduction_l	hip_rotation_l	knee_angle_l	knee_angle_l_beta	ankle_angle_l	subtalar_angle_l	mtp_angle_l	lumbar_extension	lumbar_bending	lumbar_rotation	arm_flex_r	arm_add_r	arm_rot_r	elbow_flex_r	pro_sup_r	arm_flex_l	arm_add_l	arm_rot_l	elbow_flex_l	pro_sup_l
      1.55000000	     -7.03175288	     -0.75044926	      3.85322270	     -0.34094545	      0.92802106	     -0.54422197	     44.13837571	      3.03490961	      1.16021594	     60.56883191	      1.05712554	     20.89610014	    -16.16488623	     -7.49835560	     45.10526385	     -2.52967784	      0.13614621	     59.53715609	      1.03911940	     22.62607603	     -3.64696209	     -7.49835560	    -18.26709243	     -0.98481684	     -6.75362625	     -2.93065860	    -23.83124960	    -14.03070279	    106.69200025	    112.37753332	    -12.44302940	    -22.65732454	    -11.69736934	     84.68132245	    106.90188071
      1.56000000	     -8.14051805	     -0.88598076	      3.68560004	     -0.34138542	      0.92882145	     -0.54455200	     45.12584347	      3.08041453	      1.14748960	     59.99583149	      1.04712480	     20.35628917	    -16.01223725	     -7.49849826	     46.02238327	     -2.83337498	     -0.24525642	     58.97153985	      1.02924754	     22.42238766	     -3.15442161	     -7.49849826	    -18.12260981	     -0.76163655	     -6.41817021	     -2.21024477	    -23.77899598	    -13.80376255	    104.11932768	    112.31901356	    -11.82631731	    -21.80766316	    -11.01494037	     81.80155871	    106.38667260
      1.57000000	     -9.26735644	     -1.05721580	      3.60794908	     -0.34195714	      0.92946789	     -0.54517069	     46.15270104	      3.05855101	      0.97674052	     59.45732739	      1.03772613	     19.84630745	    -15.94388895	     -7.49862853	     47.01828930	     -3.08032700	     -0.52433484	     58.46951047	      1.02048547	     22.19726845	     -2.72202541	     -7.49862853	    -17.92972688	     -0.46123889	     -6.18777507	     -1.38022532	    -23.66793719	    -13.62800769	    101.54573197	    112.16995414	    -11.22071104	    -20.96614545	    -10.45955491	     78.84680348	    105.98131856
      1.58000000	    -10.17955869	     -1.03473253	      3.54765853	     -0.34263401	      0.93055516	     -0.54612062	     46.93599474	      2.82983472	      0.90631750	     58.94571407	      1.02879679	     19.48097309	    -15.60896168	     -7.49876241	     47.72493308	     -3.06350505	     -0.77965427	     57.88095909	      1.01021331	     21.77601777	     -2.48756543	     -7.49876241	    -18.00879711	     -0.31126980	     -6.02234683	     -0.41634377	    -23.47445863	    -13.57693782	     99.08228111	    112.14690684	    -10.55925308	    -20.08671471	     -9.93296088	     75.94043578	    105.67520473
      1.59000000	    -10.84131982	     -0.90644126	      3.45958013	     -0.34310900	      0.93216325	     -0.54700590	     47.41482474	      2.56833629	      0.89538873	     58.41893970	      1.01960284	     19.07606983	    -15.43878951	     -7.49885122	     48.08173019	     -2.96147090	     -1.05496796	     57.21150156	      0.99852907	     21.41540264	     -2.25713554	     -7.49885122	    -18.35111155	     -0.27441342	     -5.91964585	      0.66625905	    -23.22624362	    -13.31824907	     96.69210212	    111.51272624	     -9.92232495	    -19.18745500	     -9.45174352	     73.12415620	    104.87255102
      1.60000000	    -11.44908793	     -0.72022791	      3.39794730	     -0.34343944	      0.93369676	     -0.54800006	     47.84736856	      2.23022655	      0.87190431	     57.96816442	      1.01173533	     19.03801618	    -14.88126823	     -7.49911615	     48.38709092	     -2.74531225	     -1.30168668	     56.55799720	      0.98712327	     20.80579828	     -2.40218423	     -7.49911615	    -18.72074632	     -0.28611172	     -5.67963552	      1.50320445	    -22.90873744	    -13.38290045	     94.52926695	    111.51717076	     -9.13440535	    -18.34109513	     -8.75433756	     70.31953993	    103.62268467
      1.61000000	    -12.05090032	     -0.62785434	      3.36443599	     -0.34377826	      0.93479626	     -0.54904638	     48.30103018	      2.00152546	      0.80660838	     57.54727201	      1.00438937	     18.74774015	    -14.76219540	     -7.49932735	     48.78702626	     -2.58556714	     -1.45406032	     56.07001593	      0.97860639	     20.40460569	     -2.36677002	     -7.49932735	    -19.06349463	     -0.21965964	     -5.61394373	      2.60081381	    -22.48730054	    -13.38962125	     92.30187165	    111.57954417	     -8.61190482	    -17.42899171	     -8.33520582	     68.02556996	    101.19307628
      1.62000000	    -12.70530513	     -0.53948632	      3.32114104	     -0.34419245	      0.93528516	     -0.55007649	     48.87757779	      1.81257713	      0.75473131	     57.22189611	      0.99871049	     18.49125060	    -14.74872848	     -7.49945784	     49.30468542	     -2.37717820	     -1.52576517	     55.69161793	      0.97200210	     20.00477548	     -2.56711924	     -7.49945784	    -19.31538870	     -0.14490147	     -5.66731048	      3.85642999	    -21.97921768	    -13.22634900	     90.21329195	    111.55155935	     -8.26330712	    -16.46290559	     -8.27640142	     65.87534246	     99.74850253
      1.63000000	    -13.38197447	     -0.58148289	      3.31040228	     -0.34459632	      0.93524094	     -0.55089485	     49.48452311	      1.77354844	      0.64130683	     56.88685598	      0.99286294	     17.95630530	    -15.27227743	     -7.49952460	     49.94470784	     -2.27732437	     -1.48078780	     55.48447537	      0.96838678	     19.89344557	     -2.55665939	     -7.49952460	    -19.51067224	      0.01869997	     -5.68239545	      5.07228536	    -21.51726770	    -12.88654786	     88.20236916	    111.13210430	     -7.96230647	    -15.57574536	     -8.20173189	     64.00573154	     97.95829644
      1.64000000	    -14.16249645	     -0.71848213	      3.23899322	     -0.34515029	      0.93435212	     -0.55152093	     50.29281980	      1.86858036	      0.52351274	     56.72977057	      0.99012128	     17.93052817	    -15.45362141	     -7.49957118	     50.78015599	     -2.29331490	     -1.40673172	     55.39378590	      0.96680395	     19.77588143	     -2.82069518	     -7.49957118	    -19.57029935	      0.26224167	     -5.77660762	      6.43989049	    -21.02804435	    -12.38915995	     86.17237295	    112.10960767	     -7.90661208	    -14.60802394	     -8.46236964	     62.35435614	     97.83598932
      1.65000000	    -14.99009907	     -0.89380757	      3.14004871	     -0.34569762	      0.93273007	     -0.55201148	     51.16828415	      2.04093609	      0.52028460	     56.64764042	      0.98868784	     18.12812993	    -15.44344062	     -7.49958474	     51.73625752	     -2.38971500	     -1.34763207	     55.47847490	      0.96828205	     19.95007428	     -2.86116166	     -7.49958474	    -19.54338648	      0.50748444	     -5.77135628	      7.63219628	    -20.63151511	    -11.72082318	     84.36778110	    112.04164972	     -7.82387589	    -13.72538546	     -8.50502425	     60.71286657	     98.19713925
      1.66000000	    -15.83529158	     -1.05168712	      2.92312071	     -0.34629314	      0.93040023	     -0.55234898	     52.10025749	      2.32271927	      0.74043769	     56.66192346	      0.98893712	     18.45430939	    -15.46909223	     -7.49958858	     52.72153948	     -2.55901588	     -1.37868591	     55.65551320	      0.97137195	     20.39536297	     -3.02716799	     -7.49958858	    -19.50086880	      0.68667004	     -5.46166077	      8.60208596	    -20.07669870	    -11.53846593	     82.74009794	    111.95822433	     -7.70887227	    -12.89976341	     -8.38057860	     59.40563899	     98.20251289
      1.67000000	    -16.73482372	     -1.15020012	      2.74853605	     -0.34686041	      0.92739809	     -0.55290115	     53.13208408	      2.47559808	      0.95127007	     56.81580654	      0.99162289	     18.84175970	    -15.34027090	     -7.49959680	     53.78042224	     -2.60155020	     -1.36482366	     55.89544174	      0.97555950	     20.87364114	     -3.02783762	     -7.49959680	    -19.31106910	      0.85086965	     -5.52199666	      9.90529394	    -19.63645100	    -10.42898665	     80.73390481	    111.96236390	     -7.77968728	    -12.15522463	     -8.31650681	     57.96033784	     98.30349305
